<?xml version="1.0" encoding="iso-8859-1"?>
<!-- Generator: Adobe Illustrator 19.0.0, SVG Export Plug-In . SVG Version: 6.00 Build 0)  -->
<svg version="1.1" id="Capa_1" xmlns="http://www.w3.org/2000/svg" xmlns:xlink="http://www.w3.org/1999/xlink" x="0px" y="0px"
	 viewBox="0 0 512 512" style="enable-background:new 0 0 512 512;" xml:space="preserve">
<rect x="310" y="322" style="fill:#FEA02C;" width="40" height="180"/>
<rect x="254" y="322" style="fill:#FFB954;" width="56" height="180"/>
<path style="fill:#FF5D5D;" d="M382,64h-2.346H320H173.5l0.001,0.019C232.455,64.824,280,112.855,280,172v150h222V184
	C502,117.726,448.274,64,382,64z"/>
<path style="fill:#EDF2FA;" d="M280,322H64V172c0-59.647,48.353-108,108-108l0,0c59.647,0,108,48.353,108,108V322z"/>
<path style="fill:#72D8FF;" d="M280,246H174.126c-4.017,0-7.273-3.256-7.273-7.273V133.273c0-4.017,3.256-7.273,7.273-7.273H280V246
	z"/>
<path style="fill:#ADE5FF;" d="M280,126H175.997l66.277,66.277c5.542,5.542,14.527,5.542,20.069,0L280,174.619V126z"/>
<polygon style="fill:#A0E557;" points="320,64 320,10 370.619,37 "/>
<path style="fill:#FF5D5D;" d="M10,282h270v40H50C27.909,322,10,304.092,10,282L10,282z"/>
<path style="fill:#62CD4D;" d="M250.682,502c2.148-5.725,3.33-11.923,3.33-18.398c0-28.939-23.46-52.398-52.398-52.398
	c-15.492,0-29.409,6.728-39.002,17.416c-2.384-0.4-4.83-0.619-7.327-0.619c-24.301,0-44,19.699-44,44c0,3.442,0.408,6.786,1.155,10
	h138.242V502z"/>
<path d="M399.57,281.07c1.86-1.859,2.93-4.439,2.93-7.069s-1.07-5.21-2.93-7.07s-4.44-2.93-7.07-2.93s-5.21,1.069-7.07,2.93
	c-1.86,1.86-2.93,4.44-2.93,7.07s1.07,5.21,2.93,7.069c1.86,1.86,4.44,2.931,7.07,2.931C395.13,284,397.71,282.93,399.57,281.07z"/>
<path d="M478.113,96.464c-21.704-23.818-51.248-38.673-83.188-41.828c-5.498-0.545-10.392,3.473-10.935,8.968
	c-0.543,5.496,3.473,10.392,8.969,10.935C449.422,80.116,492,127.175,492,184v32H360c-5.523,0-10,4.478-10,10s4.477,10,10,10h132v28
	h-60.667c-5.523,0-10,4.478-10,10s4.477,10,10,10H492v28H290V172c0-40.783-20.799-76.797-52.344-98H310v99.5c0,5.522,4.477,10,10,10
	s10-4.478,10-10V70l45.325-24.177c3.258-1.738,5.293-5.13,5.293-8.823s-2.035-7.085-5.293-8.823l-50.619-27
	c-3.1-1.654-6.839-1.559-9.851,0.248C311.843,3.233,310,6.488,310,10v13v31H173.5c-0.102,0-0.2,0.012-0.302,0.015
	C172.799,54.012,172.401,54,172,54c-17.357,0-34.082,3.685-49.708,10.952c-5.008,2.329-7.18,8.276-4.851,13.284
	c2.329,5.009,8.278,7.18,13.284,4.851C143.691,77.058,157.578,74,172,74c33.231,0,62.647,16.63,80.376,42h-78.25
	c-9.524,0-17.273,7.748-17.273,17.272v105.455c0,9.524,7.749,17.272,17.273,17.272H270v16H74V172
	c0-14.211,2.972-27.912,8.833-40.723c2.297-5.022,0.089-10.956-4.934-13.254s-10.956-0.089-13.254,4.934
	C57.582,138.397,54,154.898,54,172v100H10c-5.523,0-10,4.478-10,10c0,27.57,22.43,50,50,50h194v105.865
	c-11.138-10.33-26.034-16.662-42.387-16.662c-15.903,0-31.192,6.109-42.712,16.921c-1.21-0.082-2.418-0.124-3.617-0.124
	c-29.776,0-54,24.225-54,54H64c-5.523,0-10,4.478-10,10s4.477,10,10,10h384c5.523,0,10-4.478,10-10s-4.477-10-10-10h-88V332h142
	c5.523,0,10-4.478,10-10V184C512,151.533,499.965,120.445,478.113,96.464z M330,47.332V26.668L349.371,37L330,47.332z
	 M269.981,170.496l-14.71,14.71c-1.068,1.067-2.314,1.227-2.963,1.227s-1.895-0.159-2.963-1.228L200.139,136h63.011
	C267.394,146.709,269.797,158.338,269.981,170.496z M176.853,140.999l41.27,41.269l-41.27,41.27V140.999z M192.675,236l39.591-39.59
	l2.937,2.937c4.569,4.569,10.644,7.086,17.105,7.086c6.462,0,12.537-2.517,17.105-7.085l0.587-0.587V236H192.675z M21.714,292H270
	v20H50C36.963,312,25.841,303.641,21.714,292z M121.284,492c0-18.748,15.252-34,34-34c1.863,0,3.771,0.162,5.671,0.481
	c3.376,0.565,6.811-0.634,9.098-3.183c8.04-8.958,19.543-14.096,31.56-14.096c23.224,0,42.137,18.771,42.387,41.937v0.937
	c-0.03,2.677-0.299,5.326-0.822,7.923H121.284V492z M264,484.129c0.001-0.176,0.012-0.351,0.012-0.527
	c0-0.155-0.01-0.307-0.012-0.462V332h36v160h-36V484.129z M340,492h-20V332h20V492z"/>
<path d="M95.529,105.737c2.535,0,5.072-0.958,7.02-2.879l0.104-0.104c3.933-3.878,3.978-10.209,0.1-14.142
	c-3.877-3.934-10.209-3.979-14.142-0.101c-0.012,0.012-0.094,0.093-0.113,0.112c-3.923,3.879-3.966,10.203-0.091,14.133
	C90.364,104.742,92.945,105.737,95.529,105.737z"/>
<g>
</g>
<g>
</g>
<g>
</g>
<g>
</g>
<g>
</g>
<g>
</g>
<g>
</g>
<g>
</g>
<g>
</g>
<g>
</g>
<g>
</g>
<g>
</g>
<g>
</g>
<g>
</g>
<g>
</g>
</svg>
