<svg id="Layer_1" enable-background="new 0 0 256 256" height="512" viewBox="0 0 256 256" width="512" xmlns="http://www.w3.org/2000/svg"><g><path d="m141.384 226.367h-114.177v-65.307c0-15.862 12.859-28.72 28.72-28.72h56.736c15.862 0 28.72 12.859 28.72 28.72v65.307z" fill="#cecece"/><g><path d="m62.428 132.339h-6.5c-15.862 0-28.72 12.859-28.72 28.72v65.307h6.5v-65.307c-.001-15.861 12.858-28.72 28.72-28.72z" fill="#afafaf"/></g><g><path d="m106.163 132.339h6.5c15.862 0 28.72 12.859 28.72 28.72v65.307h-6.5v-65.307c.001-15.861-12.858-28.72-28.72-28.72z" fill="#e2e2e2"/></g><circle cx="49.222" cy="75.003" fill="#f87023" r="8.5"/><circle cx="117.369" cy="75.003" fill="#f8af23" r="8.5"/><path d="m85.967 142.973h-3.343c-7.732 0-14-6.268-14-14v-23.491c0-7.732 6.268-14 14-14h3.343c7.732 0 14 6.268 14 14v23.491c0 7.732-6.268 14-14 14z" fill="#f8af23"/><g><path d="m75.124 128.973v-23.491c0-7.198 5.434-13.12 12.421-13.905-.519-.058-1.044-.095-1.579-.095h-3.343c-7.732 0-14 6.268-14 14v23.491c0 7.732 6.268 14 14 14h3.343c.534 0 1.06-.036 1.579-.095-6.987-.785-12.421-6.707-12.421-13.905z" fill="#f87023"/></g><path d="m84.296 118.882c-19.371 0-35.074-15.703-35.074-35.074v-16.034c0-19.371 15.703-35.074 35.074-35.074 19.371 0 35.074 15.703 35.074 35.074v16.034c-.001 19.371-15.704 35.074-35.074 35.074z" fill="#f8af23"/><g><path d="m55.722 83.808v-16.034c0-18.274 13.978-33.278 31.824-34.918-1.071-.098-2.154-.156-3.25-.156-19.371 0-35.074 15.703-35.074 35.074v16.034c0 19.371 15.703 35.074 35.074 35.074 1.096 0 2.179-.057 3.25-.156-17.847-1.641-31.824-16.644-31.824-34.918z" fill="#f87023"/></g><path d="m68.624 124.97 15.672 18.003-12.967 8.116-6.996-18.75z" fill="#63bce7"/><path d="m99.967 124.97-15.671 18.003 12.966 8.116 6.996-18.75z" fill="#63bce7"/><path d="m119.369 75.791h-3.213l-3.214-17.322 6.427-2z" fill="#9e9e9e"/><path d="m49.222 75.791h4.595l5.375-16.072s36.125 24.125 65.875-4.25c22.888-21.83-14.228-32.415-32.567-36.136-5.783-1.173-11.769-.804-17.374 1.043l-21.46 7.07c-3.59 1.183-6.015 4.535-6.015 8.315-5.026 5.026-6.868 12.415-4.791 19.212z" fill="#9e9e9e"/><g><path d="m54.15 35.76c0-3.78 2.426-7.132 6.015-8.315l21.46-7.07c2.416-.796 4.904-1.3 7.415-1.542-4.683-.452-9.421.061-13.915 1.542l-21.46 7.07c-3.59 1.183-6.015 4.535-6.015 8.315-5.026 5.026-6.868 12.415-4.791 19.212l6.362 20.819h4.595l.995-2.976-5.453-17.843c-2.076-6.797-.233-14.186 4.792-19.212z" fill="#707070"/></g><g fill="#3f3679"><circle cx="74.39" cy="81.612" r="3.125"/><circle cx="100.702" cy="81.612" r="3.125"/></g><path d="m141.381 226.367c8.284 0 15-6.716 15-15v-87.679h-30v87.679c0 8.284 6.716 15 15 15z" fill="#cecece"/><g><path d="m149.881 123.688v87.679c0 7.167-5.03 13.151-11.75 14.637 1.048.232 2.133.363 3.25.363 8.284 0 15-6.716 15-15v-87.679z" fill="#e2e2e2"/></g><path d="m126.381 123.688v-6.853c0-6.46 5.237-11.696 11.696-11.696h9.686c2.133 0 3.862 1.729 3.862 3.862h11.387c2.724 0 5.43-.439 8.015-1.301l3.945-1.315c3.027-1.009 6.153 1.244 6.153 4.435 0 1.925-1.18 3.653-2.972 4.354l-21.773 8.515h-29.999z" fill="#f8af23"/><g><path d="m174.626 110.819c0-1.545-.737-2.866-1.836-3.707l2.183-.728c3.027-1.009 6.153 1.244 6.153 4.435 0 1.925-1.18 3.653-2.972 4.354l-21.773 8.515h-6.5l21.773-8.515c1.793-.701 2.972-2.429 2.972-4.354z" fill="#f8d323"/></g><path d="m234.75 25.862h-75.996c-2.761 0-5 2.239-5 5v66.263l18.768-15.513h62.228c2.761 0 5-2.239 5-5v-45.75c0-2.761-2.239-5-5-5z" fill="#f8af23"/><g><path d="m234.75 25.862h-6.5c2.761 0 5 2.239 5 5v45.75c0 2.761-2.239 5-5 5h6.5c2.761 0 5-2.239 5-5v-45.75c0-2.761-2.239-5-5-5z" fill="#f8d323"/></g><g fill="#3f3679"><path d="m27.323 235.84h-18.003c-.829 0-1.5.671-1.5 1.5s.671 1.5 1.5 1.5h18.003c.829 0 1.5-.671 1.5-1.5s-.671-1.5-1.5-1.5z"/><path d="m246.68 235.84h-18.003c-.829 0-1.5.671-1.5 1.5s.671 1.5 1.5 1.5h18.003c.829 0 1.5-.671 1.5-1.5s-.671-1.5-1.5-1.5z"/><path d="m218.479 235.84h-180.958c-.829 0-1.5.671-1.5 1.5s.671 1.5 1.5 1.5h180.959c.829 0 1.5-.671 1.5-1.5s-.672-1.5-1.501-1.5z"/><path d="m9.32 227.867h17.887 114.177 105.296c.829 0 1.5-.671 1.5-1.5s-.671-1.5-1.5-1.5h-95.842c4.252-2.988 7.043-7.92 7.043-13.5v-86.655l20.819-8.142c2.385-.933 3.926-3.19 3.926-5.75 0-2.009-.935-3.834-2.564-5.009-1.629-1.174-3.657-1.484-5.563-.849l-3.946 1.315c-2.435.812-4.972 1.224-7.54 1.224h-10.101c-.65-2.229-2.712-3.862-5.149-3.862h-9.687c-7.276 0-13.196 5.92-13.196 13.196v6.854 9.725c-3.846-1.707-7.948-2.574-12.218-2.574h-7.543l-3.654-6.274v-8.477c11.377-6.076 19.178-17.989 19.388-31.714 3.868-1.442 6.514-5.196 6.514-9.371 0-4.181-2.636-7.923-6.5-9.369v-4.651c1.761-1.315 3.508-2.784 5.233-4.429 6.367-6.073 8.804-11.898 7.242-17.313-1.837-6.372-10.364-15.253-40.545-21.378-6.006-1.218-12.281-.842-18.142 1.088l-21.46 7.07c-4.015 1.322-6.774 4.937-7.027 9.112-5.111 5.413-6.93 13.125-4.745 20.278l3.271 10.704c-3.338 1.7-5.474 5.101-5.474 8.889 0 4.964 3.691 9.164 8.527 9.883.394 13.508 8.141 25.201 19.375 31.202v8.476l-3.654 6.274h-7.543c-16.664 0-30.221 13.557-30.221 30.221v63.807h-16.384c-.829 0-1.5.671-1.5 1.5s.671 1.499 1.5 1.499zm145.561-16.5c0 7.444-6.056 13.5-13.5 13.5s-13.5-6.056-13.5-13.5v-86.179h27zm-27-94.533c0-5.622 4.574-10.196 10.196-10.196h9.687c.73 0 1.376.34 1.81.862h-10.531c-.829 0-1.5.671-1.5 1.5s.671 1.5 1.5 1.5h12.583 1.208 10.179c2.891 0 5.748-.463 8.489-1.378l3.945-1.315c.981-.326 2.022-.167 2.86.437s1.318 1.543 1.318 2.576c0 1.316-.792 2.477-2.019 2.957l-21.509 8.412h-28.217v-5.355zm-3 19.9v74.633c0 5.58 2.791 10.512 7.043 13.5h-46.129v-79.185l10.67 6.678c.242.151.518.229.796.229.162 0 .325-.026.482-.08.427-.145.766-.474.923-.896l6.632-17.774h7.365c4.302 0 8.41.977 12.218 2.895zm-28.382 12.107-9.919-6.208 13.144-15.1 2.88 4.947zm27.871-73.838c0 2.519-1.388 4.802-3.5 6.036v-5.248-6.824c2.113 1.233 3.5 3.511 3.5 6.036zm-6.5-7.229v6.517h-.467l-1.826-9.84c.766-.436 1.53-.9 2.293-1.39zm-63.735-38.903 21.46-7.07c5.368-1.769 11.109-2.114 16.606-.998 10.444 2.119 35.079 8.239 38.26 19.269 1.228 4.256-.936 9.071-6.43 14.311-11.939 11.388-26.296 15.56-42.672 12.398-11.038-2.131-19.319-7.046-21.002-8.099l-11.183-23.216c.122-3.015 2.075-5.645 4.961-6.595zm-6.855 9.577 10.297 21.373-4.839 14.47h-2.406l-6.038-19.757c-1.707-5.584-.552-11.564 2.986-16.086zm-5.058 36.555c0-2.474 1.292-4.724 3.363-5.982l2.148 7.029c-.003.036-.011.07-.011.106v5.677c-3.152-.692-5.5-3.517-5.5-6.83zm8.5 8.805v-6.517h3.096c.645 0 1.218-.413 1.422-1.024l4.782-14.299c6.331 3.613 29.714 15.165 52.776 3.948l1.883 10.149c.132.711.752 1.227 1.475 1.227h1.714v6.517c0 18.513-15.062 33.574-33.574 33.574s-33.574-15.063-33.574-33.575zm33.573 36.574c5.022 0 9.811-1.019 14.171-2.858v6.885l-14.171 16.28-14.171-16.28v-6.885c4.361 1.839 9.149 2.858 14.171 2.858zm-15.427 7.152 13.144 15.1-9.919 6.208-6.105-16.361zm-40.161 33.526c0-15.01 12.211-27.221 27.221-27.221h7.365l6.632 17.774c.157.422.497.751.923.896.157.053.32.08.482.08.278 0 .555-.078.796-.229l10.67-6.678v79.185h-29.167v-55.367c0-.829-.671-1.5-1.5-1.5s-1.5.671-1.5 1.5v55.367h-21.922z"/><path d="m79.911 71.833-11.881 3.46c-.795.231-1.252 1.064-1.021 1.859.19.655.79 1.081 1.439 1.081.139 0 .28-.02.42-.061l11.881-3.46c.795-.231 1.252-1.064 1.021-1.859-.231-.794-1.062-1.251-1.859-1.02z"/><path d="m94.341 74.713 11.882 3.46c.14.041.281.061.42.061.65 0 1.249-.426 1.439-1.081.232-.795-.225-1.628-1.021-1.859l-11.882-3.46c-.798-.232-1.628.226-1.859 1.021-.231.794.226 1.627 1.021 1.858z"/><path d="m86.692 97.344h3.718c.464 0 .902-.215 1.186-.581.284-.367.383-.844.267-1.293l-2.865-11.106c-.208-.802-1.026-1.285-1.827-1.078-.802.207-1.285 1.025-1.078 1.827l2.381 9.232h-1.782c-.829 0-1.5.671-1.5 1.5s.672 1.499 1.5 1.499z"/><path d="m90.747 107.89c.288.264.651.395 1.014.395.406 0 .81-.164 1.106-.486.56-.61.519-1.56-.091-2.12-1.435-1.316-3.292-2.041-5.229-2.041s-3.794.725-5.229 2.041c-.61.56-.651 1.509-.091 2.12.56.61 1.508.651 2.12.091 1.758-1.616 4.641-1.615 6.4 0z"/><path d="m153.115 98.482c.204.096.422.143.639.143.343 0 .682-.117.956-.344l18.352-15.169h61.689c3.584 0 6.5-2.916 6.5-6.5v-45.75c0-3.584-2.916-6.5-6.5-6.5h-75.996c-3.584 0-6.5 2.916-6.5 6.5v66.263c-.001.581.334 1.11.86 1.357zm2.139-67.62c0-1.93 1.57-3.5 3.5-3.5h75.996c1.93 0 3.5 1.57 3.5 3.5v45.75c0 1.93-1.57 3.5-3.5 3.5h-62.229c-.349 0-.687.122-.956.344l-16.312 13.483v-63.077z"/><path d="m167.668 44.737h58.167c.829 0 1.5-.671 1.5-1.5s-.671-1.5-1.5-1.5h-58.167c-.829 0-1.5.671-1.5 1.5s.672 1.5 1.5 1.5z"/><path d="m167.668 55.237h58.167c.829 0 1.5-.671 1.5-1.5s-.671-1.5-1.5-1.5h-58.167c-.829 0-1.5.671-1.5 1.5s.672 1.5 1.5 1.5z"/><path d="m227.335 64.237c0-.829-.671-1.5-1.5-1.5h-58.167c-.829 0-1.5.671-1.5 1.5s.671 1.5 1.5 1.5h58.167c.829 0 1.5-.671 1.5-1.5z"/></g></g></svg>