<svg enable-background="new 0 0 58 58" height="512" viewBox="0 0 58 58" width="512" xmlns="http://www.w3.org/2000/svg"><path d="m14 47h-8l2-28h4z" fill="#e7eced"/><path d="m52 47h-8l2-28h4z" fill="#e7eced"/><path d="m33 47h-8l2-28h4z" fill="#e7eced"/><g fill="#afb6bb"><path d="m4 46h12v5h-12z"/><path d="m6 15h8v5h-8z"/><path d="m42 46h12v5h-12z"/><path d="m44 15h8v5h-8z"/><path d="m23 46h12v5h-12z"/><path d="m25 15h8v5h-8z"/></g><path d="m4 11h50v5h-50z" fill="#e7eced" transform="matrix(-1 0 0 -1 58 27)"/><path d="m58 12h-58l29-12z" fill="#afb6bb"/><path d="m2 50h54v5h-54z" fill="#e7eced"/><path d="m0 54h58v4h-58z" fill="#afb6bb"/></svg>